<svg xmlns:xlink="http://www.w3.org/1999/xlink" xmlns="http://www.w3.org/2000/svg" aria-hidden="true" class="valign-middle absoluteCenter" focusable="false" preserveAspectRatio="xMidYMid meet" viewBox="0 0 24 24" style="width: 24px; height: 24px; overflow: visible; fill: currentcolor;" width="24"  height="24" ><path class="sb-hamburgerButton-middleLine-CLOSED sb-hamburgerButton-animation" d="M21,12.9H3c-0.5,0-0.9-0.4-0.9-0.9s0.4-0.9,0.9-0.9h18c0.5,0,0.9,0.4,0.9,0.9S21.5,12.9,21,12.9z" fill-opacity="0.58" fill="#000000"></path><path class="sb-hamburgerButton-topLine-CLOSED sb-hamburgerButton-animation sb-hamburgerButton-animation-outer-lines" d="M21,6.9H3C2.5,6.9,2.1,6.5,2.1,6S2.5,5.1,3,5.1h18c0.5,0,0.9,0.4,0.9,0.9S21.5,6.9,21,6.9z" fill-opacity="0.58" fill="#000000"></path><path class="sb-hamburgerButton-bottomLine-CLOSED sb-hamburgerButton-animation sb-hamburgerButton-animation-outer-lines" d="M21,18.9H3c-0.5,0-0.9-0.4-0.9-0.9s0.4-0.9,0.9-0.9h18c0.5,0,0.9,0.4,0.9,0.9S21.5,18.9,21,18.9z" fill-opacity="0.58" fill="#000000"></path><circle class="sb-icon-hover" cx="50%" cy="50%" fill="#000000" r="75%" fill-opacity="0"></circle></svg>